# xmcd
#
# Track frame offsets:
#	150
#	16012
#	29175
#	46262
#	59700
#	71025
#	82875
#	92912
#	106292
#	123330
#	136850
#	154682
#	169217
#	182457
#	192000
#	207162
#	226770
#	245745
#	263460
#	276572
#
# Disc length: 3861
#
# Revision: 1
# Processed by: cddbd v1.5.1PL0 Copyright (c) Steve Scherf et al.
# Submitted via: EasyCDDAExtractor 5.0.5.1
# Normalized: r0:DSETVAR1
#
DISCID=130f1314
DTITLE=Various Artist - The Ultimate Country Collection CD2
DYEAR=1900
DGENRE=Country
TTITLE0=Willie Nelson - Always On My Mind
TTITLE1=Hank Locklin - Please Help Me, I'm Falling
TTITLE2=Ray Price - For The Good Times
TTITLE3=Loretta Lynn - Coal Miner's Daughter
TTITLE4=Don Gibson - Oh Lonesome Me
TTITLE5=Lacy J Dalton - Hillbilly Girl With The Blues
TTITLE6=George Hamilton IV - Abilene
TTITLE7=Faron Young - It's Four In The Morning
TTITLE8=Kris Kristofferson - Loving Her Was Easier (Than Anything I'll Ever Do Again)
TTITLE9=Mac Davis - Baby Don't Get Hooked On Me
TTITLE10=Nanci Griffith - Lone Star State Of Mind
TTITLE11=The Bellamy Brothers - If I Said You Had A Beautiful Body Would You Hold It Against Me
TTITLE12=Dolly Parton - Here You Come Again
TTITLE13=Waylon Jennings - Theme From The Dukes Of Hazzard (Good Ol' Boys)
TTITLE14=Mary Chapin Carpenter - Down At The Twist And Shout
TTITLE15=Marty Robbins - El Paso
TTITLE16=Keith Whitley - Don't Close Your Eyes
TTITLE17=Lee Greenwood - The Wind Beneath My Wings
TTITLE18=Crystal Gayle - Talking In Your Sleep
TTITLE19=Alan Jackson - Don't Rock The Jukebox
EXTD=ID3G:   2
EXTT0=
EXTT1=
EXTT2=
EXTT3=
EXTT4=
EXTT5=
EXTT6=
EXTT7=
EXTT8=
EXTT9=
EXTT10=
EXTT11=
EXTT12=
EXTT13=
EXTT14=
EXTT15=
EXTT16=
EXTT17=
EXTT18=
EXTT19=
PLAYORDER=
